<?xml version="1.0" standalone="no"?>
<!DOCTYPE svg PUBLIC "-//W3C//DTD SVG 20010904//EN"
 "http://www.w3.org/TR/2001/REC-SVG-20010904/DTD/svg10.dtd">
<svg version="1.0" xmlns="http://www.w3.org/2000/svg"
 width="240.000000pt" height="240.000000pt" viewBox="0 0 240.000000 240.000000"
 preserveAspectRatio="xMidYMid meet">
<metadata>
Created by potrace 1.11, written by Peter Selinger 2001-2013
</metadata>
<g transform="translate(0.000000,240.000000) scale(0.100000,-0.100000)"
fill="#000000" stroke="none">
<path d="M617 1783 c-50 -6 -37 -23 18 -23 61 0 175 -25 253 -57 228 -90 354
-307 271 -468 -15 -31 -33 -51 -45 -53 -12 -2 -47 18 -85 47 -147 111 -252
161 -340 161 l-41 0 49 -38 c73 -59 160 -157 173 -197 25 -76 -50 -184 -172
-244 l-61 -31 39 0 c57 0 166 25 210 48 22 11 75 48 119 81 90 69 131 82 181
58 53 -26 67 -112 26 -160 -20 -22 -101 -46 -169 -49 -29 -2 -53 -6 -53 -10 0
-3 20 -24 45 -46 70 -61 161 -87 305 -86 93 0 128 5 180 23 92 32 173 84 251
161 58 57 149 179 149 201 0 4 -39 28 -87 54 -136 73 -165 97 -256 208 -187
227 -359 346 -586 403 -76 20 -116 24 -215 22 -66 -1 -138 -3 -159 -5z m437
-59 c17 -6 22 -24 8 -24 -5 0 -17 7 -28 15 -19 15 -8 20 20 9z"/>
<path d="M1155 530 c45 -11 85 -11 85 0 0 6 -25 9 -57 9 -48 -1 -53 -3 -28 -9z"/>
</g>
</svg>
